<?xml version="1.0" standalone="no"?>
<!DOCTYPE svg PUBLIC "-//W3C//DTD SVG 20010904//EN"
 "http://www.w3.org/TR/2001/REC-SVG-20010904/DTD/svg10.dtd">
<svg version="1.0" xmlns="http://www.w3.org/2000/svg"
 width="204.000000pt" height="158.000000pt" viewBox="0 0 204.000000 158.000000"
 preserveAspectRatio="xMidYMid meet">
<metadata>
Created by potrace 1.16, written by Peter Selinger 2001-2019
</metadata>
<g transform="translate(0.000000,158.000000) scale(0.100000,-0.100000)"
fill="#000000" stroke="none">
<path d="M1094 1475 c-63 -26 -81 -89 -45 -155 10 -19 64 -100 118 -179 64
-92 99 -151 96 -162 -5 -17 -35 -18 -537 -21 l-531 -3 -47 -23 c-62 -31 -89
-75 -95 -156 -8 -99 27 -175 101 -213 40 -21 274 -31 740 -32 278 -1 337 -3
333 -14 -3 -8 -51 -82 -106 -166 -113 -171 -119 -190 -71 -245 36 -41 70 -51
118 -35 37 12 261 179 473 351 69 57 168 138 220 180 52 42 102 90 112 106 19
34 22 93 7 123 -6 10 -135 128 -288 261 -152 133 -306 270 -342 304 -66 63
-91 75 -185 87 -23 4 -53 0 -71 -8z m139 -67 c12 -6 130 -106 262 -221 132
-116 267 -234 300 -263 148 -129 157 -144 115 -197 -35 -44 -620 -508 -632
-501 -6 4 -8 3 -4 -4 10 -17 -102 -92 -139 -92 -51 0 -69 29 -39 66 14 17 15
17 10 1 -4 -11 -2 -16 5 -12 6 4 8 14 5 22 -8 20 32 85 46 77 7 -4 8 -2 4 4
-7 12 23 61 92 151 41 54 58 86 67 129 6 30 4 33 -27 46 -18 8 -73 16 -123 20
-49 3 -77 2 -61 -2 17 -4 28 -11 25 -17 -2 -6 27 -11 76 -13 44 -2 83 -6 87
-10 4 -4 -218 -4 -494 -1 -305 4 -503 10 -507 16 -3 6 -22 15 -41 22 -46 15
-98 64 -122 115 l-19 41 4 -45 c2 -25 7 -54 11 -65 4 -11 0 -7 -9 9 -34 58 -2
175 54 203 9 4 265 10 569 13 l554 5 19 24 c10 13 19 33 19 45 0 12 -54 99
-119 194 -122 177 -141 213 -120 238 14 17 101 19 132 2z m-1016 -794 c-3 -3
-12 -4 -19 -1 -8 3 -5 6 6 6 11 1 17 -2 13 -5z"/>
<path d="M1135 239 c-4 -6 -4 -13 -1 -16 3 -4 6 -1 6 6 0 7 5 9 12 5 7 -4 8
-3 4 4 -9 15 -13 15 -21 1z"/>
<path d="M1170 185 c-30 -17 -44 -19 -34 -4 5 8 1 8 -13 0 -11 -6 -23 -7 -27
-4 -3 3 -6 2 -6 -4 0 -18 24 -32 51 -29 33 4 46 12 59 37 13 22 4 24 -30 4z
m-45 -25 c3 -5 1 -10 -4 -10 -6 0 -11 5 -11 10 0 6 2 10 4 10 3 0 8 -4 11 -10z"/>
</g>
</svg>
